HIERARCHY
ROOT RootJoint
{
    OFFSET   0.000000   0.000000   0.000000
    CHANNELS 6 Xposition Yposition Zposition Xrotation Yrotation Zrotation
    JOINT pelvis_lowerback
    {
        OFFSET   0.000000   0.093605   0.000000
        CHANNELS 3 Xrotation Yrotation Zrotation
        JOINT lowerback_torso
        {
            OFFSET   0.000000   0.100000   0.000000
            CHANNELS 3 Xrotation Yrotation Zrotation
            JOINT torso_head
            {
                OFFSET   0.000000   0.282350   0.000000
                CHANNELS 3 Xrotation Yrotation Zrotation
                End Site
                {
                    OFFSET   0.000000   0.192650   0.000000
                }
            }
            JOINT rTorso_Clavicle
            {
                OFFSET  -0.001000   0.157500   0.000000
                CHANNELS 3 Xrotation Yrotation Zrotation
                JOINT rShoulder
                {
                    OFFSET  -0.117647   0.000000   0.000000
                    CHANNELS 3 Xrotation Yrotation Zrotation
                    JOINT rElbow
                    {
                        OFFSET  -0.245000   0.000000   0.000000
                        CHANNELS 3 Xrotation Yrotation Zrotation
                        JOINT rWrist
                        {
                            OFFSET  -0.240000   0.000000   0.000000
                            CHANNELS 3 Xrotation Yrotation Zrotation
                            End Site
                            {
                                OFFSET  -0.116353  -0.002500   0.000000
                            }
                        }
                    }
                }
            }
            JOINT lTorso_Clavicle
            {
                OFFSET   0.001000   0.157500   0.000000
                CHANNELS 3 Xrotation Yrotation Zrotation
                JOINT lShoulder
                {
                    OFFSET   0.117647   0.000000   0.000000
                    CHANNELS 3 Xrotation Yrotation Zrotation
                    JOINT lElbow
                    {
                        OFFSET   0.245000   0.000000   0.000000
                        CHANNELS 3 Xrotation Yrotation Zrotation
                        JOINT lWrist
                        {
                            OFFSET   0.240000   0.000000   0.000000
                            CHANNELS 3 Xrotation Yrotation Zrotation
                            End Site
                            {
                                OFFSET   0.116353  -0.002500   0.000000
                            }
                        }
                    }
                }
            }
        }
    }
    JOINT rHip
    {
        OFFSET  -0.100000  -0.051395   0.000000
        CHANNELS 3 Xrotation Yrotation Zrotation
        JOINT rKnee
        {
            OFFSET   0.000000  -0.410000   0.000000
            CHANNELS 3 Xrotation Yrotation Zrotation
            JOINT rAnkle
            {
                OFFSET   0.000000  -0.390000   0.000000
                CHANNELS 3 Xrotation Yrotation Zrotation
                JOINT rToeJoint
                {
                    OFFSET   0.000000  -0.050000   0.130000
                    CHANNELS 3 Xrotation Yrotation Zrotation
                    End Site
                    {
                        OFFSET  -0.010000   0.002000   0.060000
                    }
                }
            }
        }
    }
    JOINT lHip
    {
        OFFSET   0.100000  -0.051395   0.000000
        CHANNELS 3 Xrotation Yrotation Zrotation
        JOINT lKnee
        {
            OFFSET   0.000000  -0.410000   0.000000
            CHANNELS 3 Xrotation Yrotation Zrotation
            JOINT lAnkle
            {
                OFFSET   0.000000  -0.390000   0.000000
                CHANNELS 3 Xrotation Yrotation Zrotation
                JOINT lToeJoint
                {
                    OFFSET   0.000000  -0.050000   0.130000
                    CHANNELS 3 Xrotation Yrotation Zrotation
                    End Site
                    {
                        OFFSET   0.010000   0.002000   0.060000
                    }
                }
            }
        }
    }
}
MOTION
Frames: 12
Frame Time:   0.008333
 -2.383983   0.704522   3.973735  28.909765   3.815119  -0.676741  52.777373  -0.361375  -2.864771  -2.748866  -0.816012  -3.097669 -20.362333   1.091711  -5.669825  -2.354613  16.958959  12.926192  -5.321221   3.949924  32.688411  -0.000973  25.680680  -0.019560   1.359546   1.785034  -6.719985  -5.015758 -12.713635 -15.759069  -1.524798  -0.070174 -39.441023   0.010730 -23.314553   0.002409  -4.369909  -4.353243   6.880046 -71.625628  -3.057877  -6.586036  85.831035  -0.000768   0.000434 -43.781250 -12.088105  -6.054721   1.065421   0.000437   0.000416 -74.284915   3.577440   5.768846  90.352895  -0.000061  -0.000047 -31.406083   2.695152   3.929512 -19.222701  -0.002264   0.006831
 -2.383723   0.706969   3.977660  28.524895   3.949832  -0.655899  52.240781  -0.519133  -2.762584  -2.665880  -1.020731  -3.117994 -20.430775   1.154989  -5.697120  -3.025239  18.201606  13.174209  -7.132001   4.669485  32.065177   0.001436  25.515560  -0.017951   1.067571   0.940321  -6.048501  -5.899673 -13.928806 -15.720151  -3.936857  -1.106101 -38.025799   0.009892 -23.245033   0.002604  -4.633059  -3.555626   6.277159 -70.587601  -3.039985  -6.650180  85.384305  -0.001157   0.000212 -43.986643 -11.971307  -6.100402   1.060969   0.000345   0.000324 -73.528112   3.398540   5.600837  90.200995   0.000181  -0.000010 -30.541555   2.672848   3.561182 -20.969295  -0.005638   0.007281
 -2.383628   0.709467   3.981331  28.167223   4.149446  -0.667472  51.678686  -0.677101  -2.659649  -2.691920  -1.225492  -3.120807 -20.432696   1.206888  -5.727814  -3.835651  19.519849  13.281897  -8.939510   5.506081  31.357967   0.002559  25.428134  -0.015578   0.807096   0.337511  -5.652632  -6.942986 -15.240283 -15.500239  -6.323936  -2.288561 -36.528529   0.007790 -23.251534   0.002107  -4.854331  -3.023357   5.992078 -69.577159  -3.023329  -6.709661  84.914761  -0.001692  -0.000222 -44.167661 -11.863327  -6.143325   1.060945   0.000276   0.000259 -72.815196   3.224589   5.429551  90.003754   0.000342  -0.000051 -29.721243   2.632389   3.214719 -22.439212  -0.007583   0.006353
 -2.383600   0.711765   3.984875  27.844301   4.390366  -0.706894  51.076145  -0.823462  -2.563126  -2.859322  -1.420306  -3.113672 -20.427017   1.254505  -5.758384  -4.705153  20.852371  13.308902 -10.689653   6.397817  30.635687   0.002766  25.386247  -0.013043   0.582730  -0.017330  -5.470162  -8.052291 -16.590485 -15.194035  -8.619502  -3.555463 -35.060964   0.005022 -23.304955   0.001200  -5.030093  -2.788283   5.948596 -68.619531  -3.010808  -6.764920  84.472862  -0.002198  -0.000696 -44.356845 -11.763646  -6.183616   1.064893   0.000224   0.000219 -72.163860   3.062964   5.267136  89.816566   0.000370  -0.000141 -28.955720   2.588620   2.891321 -23.797449  -0.008709   0.004687
 -2.383575   0.713783   3.988404  27.546583   4.657665  -0.766825  50.430327  -0.957444  -2.475929  -3.144655  -1.604904  -3.105519 -20.427979   1.299665  -5.787812  -5.594124  22.167392  13.293449 -12.362180   7.312412  29.932388   0.002376  25.374389  -0.010589   0.383977  -0.191858  -5.428022  -9.177875 -17.944594 -14.860238 -10.797772  -4.867537 -33.676437   0.002057 -23.389144   0.000050  -5.174344  -2.776774   6.040902 -67.705863  -3.002551  -6.817647  84.076583  -0.002591  -0.001103 -44.571507 -11.672291  -6.221818   1.072479   0.000187   0.000199 -71.557231   2.914108   5.116196  89.657119   0.000317  -0.000236 -28.248726   2.543142   2.588581 -25.151542  -0.009399   0.002680
 -2.383511   0.715526   3.992004  27.270724   4.940182  -0.841476  49.744045  -1.081345  -2.400227  -3.521201  -1.781241  -3.102431 -20.439024   1.342944  -5.816234  -6.478853  23.446445  13.256815 -13.948169   8.229296  29.265675   0.001640  25.383182  -0.008333   0.204393  -0.238026  -5.476643 -10.288726 -19.280767 -14.530799 -12.847956  -6.195459 -32.400345  -0.000783 -23.493515  -0.001210  -5.296228  -2.924957   6.196958 -66.826321  -2.998880  -6.868408  83.725202  -0.002853  -0.001405 -44.817540 -11.589465  -6.258400   1.083295   0.000159   0.000194 -70.982168   2.777424   4.977097  89.528323   0.000233  -0.000309 -27.598991   2.496316   2.304564 -26.540006  -0.009805   0.000536
 -2.383378   0.717039   3.995746  27.017936   5.228961  -0.926085  49.022470  -1.197866  -2.337727  -3.965835  -1.951308  -3.108142 -20.460100   1.384510  -5.844117  -7.344045  24.677402  13.209643 -15.444344   9.133920  28.643100   0.000744  25.406289  -0.006331   0.040244  -0.192491  -5.584957 -11.364639 -20.583609 -14.220874 -14.767325  -7.516328 -31.241109  -0.003306 -23.610561  -0.002462  -5.401309  -3.185049   6.374438 -65.973156  -3.000226  -6.917519  83.409133  -0.003005  -0.001605 -45.094528 -11.515267  -6.293665   1.096921   0.000140   0.000200 -70.430800   2.652280   4.849138  89.427272   0.000148  -0.000352 -27.002331   2.448473   2.037895 -27.958674  -0.009970  -0.001576
 -2.383007   0.719029   3.999118  26.659400   5.492491  -1.101754  48.153381  -1.286029  -2.140040  -3.939213  -2.090739  -3.167694 -20.158442   1.382475  -5.860750  -8.225195  26.047811  12.835929 -17.522943  10.115748  27.620770  -0.018543  26.056170   0.005595  -0.147109  -0.987483  -5.050791 -12.475985 -21.932326 -13.488727 -17.334980  -8.951962 -30.051133  -0.017341 -24.123800  -0.010068  -5.620378  -2.597035   5.950516 -65.054577  -3.164052  -6.940191  83.052849  -0.002977  -0.001669 -45.004544 -11.717700  -6.024800   0.689770   0.000693   0.000004 -69.574825   2.479067   4.767186  88.754370  -0.000279  -0.000933 -25.852652   2.471832   1.759098 -26.309000  -0.005606   0.002171
 -2.382488   0.721680   4.002320  26.361112   5.807414  -1.215314  47.339907  -1.413081  -1.965843  -4.006413  -2.249570  -3.229622 -19.811784   1.371165  -5.874106  -9.225819  27.443333  12.295942 -19.564012  11.214553  26.508793  -0.036596  26.732390   0.015161  -0.299758  -1.453407  -4.849169 -13.655733 -23.339625 -12.646942 -19.970059 -10.581490 -28.771942  -0.030808 -24.661224  -0.016974  -5.809374  -2.251437   5.684150 -64.172890  -3.298560  -7.047074  82.586123  -0.003128  -0.001776 -44.800186 -11.915233  -5.781112   0.240792   0.001030  -0.000137 -68.923596   2.314840   4.610277  88.461348  -0.000343  -0.000996 -25.380572   2.414352   1.410088 -27.876071  -0.008316  -0.000898
 -2.381814   0.724587   4.005700  26.134760   6.114063  -1.319702  46.501001  -1.531312  -1.813344  -4.193480  -2.404392  -3.299393 -19.472997   1.359884  -5.889046 -10.253961  28.823499  11.683932 -21.515485  12.361222  25.401851  -0.051606  27.397886   0.022554  -0.422887  -1.674524  -4.902067 -14.837300 -24.760009 -11.768283 -22.549043 -12.299510 -27.518886  -0.042350 -25.198636  -0.022902  -5.962969  -2.151293   5.599886 -63.328453  -3.423276  -7.159734  82.056901  -0.003359  -0.001870 -44.557713 -12.104461  -5.554984  -0.219132   0.001190  -0.000252 -68.309749   2.190021   4.446257  88.135975  -0.000473  -0.001046 -24.761661   2.345680   1.108620 -29.512656  -0.010230  -0.003335
 -2.380957   0.727543   4.009486  25.967683   6.408719  -1.432533  45.608252  -1.639452  -1.671704  -4.492882  -2.552333  -3.364838 -19.155171   1.349950  -5.906592 -11.263963  30.165259  11.051241 -23.358750  13.518658  24.346604  -0.063271  28.041024   0.028205  -0.527033  -1.740360  -5.100777 -15.989119 -26.167006 -10.880062 -24.979354 -14.019894 -26.366013  -0.051535 -25.728625  -0.027654  -6.090030  -2.242358   5.648353 -62.506259  -3.551340  -7.268384  81.507780  -0.003596  -0.001908 -44.304814 -12.285637  -5.342812  -0.714742   0.001208  -0.000366 -67.712236   2.091439   4.293024  87.784944  -0.000668  -0.001104 -24.147091   2.290845   0.828932 -31.040275  -0.011251  -0.005568
 -2.379883   0.730475   4.013834  25.846824   6.687822  -1.552833  44.654137  -1.737449  -1.538394  -4.884157  -2.691454  -3.423338 -18.863340   1.341198  -5.925837 -12.230927  31.452959  10.423514 -25.087736  14.662597  23.362782  -0.071745  28.656412   0.032376  -0.618238  -1.707114  -5.377958 -17.080005 -27.535635 -10.007129 -27.255185 -15.708613 -25.328818  -0.058297 -26.242094  -0.031206  -6.198675  -2.453813   5.763253 -61.690081  -3.680649  -7.373217  80.959621  -0.003811  -0.001865 -44.047746 -12.456636  -5.143970  -1.272240   0.001069  -0.000502 -67.111891   2.012064   4.151063  87.429558  -0.000876  -0.001145 -23.553272   2.243160   0.568783 -32.501316  -0.011696  -0.007448
